<svg xmlns="http://www.w3.org/2000/svg" id="Top_Performer_dark_" data-name="Top Performer (dark)" viewBox="0 0 232 256"><defs><style>.cls-3{fill:#fff}</style></defs><g id="Seal"><g id="Shape"><path id="Ring" d="m211.46 55.35-80-47.37a31.999 31.999 0 0 0-30.92 0l-80 47.37A32.02 32.02 0 0 0 4 83.38v90.25c0 11.66 6.34 22.4 16.54 28.03l80 46.36a31.999 31.999 0 0 0 30.92 0l80-46.36A32.02 32.02 0 0 0 228 173.63V83.38c0-11.66-6.34-22.4-16.54-28.03Z" style="fill:#751cb5"/><path id="Base" d="m197.82 64.72-68.57-41.25a27.015 27.015 0 0 0-26.5 0L34.18 64.72C25.43 69.63 20 78.98 20 89.13v78.6c0 10.15 5.43 19.51 14.18 24.41l68.57 40.38a27.015 27.015 0 0 0 26.5 0l68.57-40.38c8.75-4.91 14.18-14.26 14.18-24.41v-78.6c0-10.15-5.43-19.51-14.18-24.41Z" style="fill:#9f49ec"/><path id="Border" d="m204.64 60.03-74.29-44.3a29.505 29.505 0 0 0-28.71 0l-74.28 44.3C17.88 65.3 12 75.34 12 86.25v84.43c0 10.91 5.88 20.95 15.36 26.22l74.29 43.37a29.505 29.505 0 0 0 28.71 0l74.29-43.37c9.48-5.27 15.36-15.31 15.36-26.22V86.25c0-10.91-5.88-20.95-15.36-26.22ZM212 167.74c0 10.15-5.43 19.51-14.18 24.41l-68.57 40.38a27.015 27.015 0 0 1-26.5 0l-68.57-40.38C25.43 187.24 20 177.89 20 167.74v-78.6c0-10.15 5.43-19.51 14.18-24.41l68.57-41.26a27.015 27.015 0 0 1 26.5 0l68.57 41.25C206.57 69.63 212 78.98 212 89.13v78.6Z" class="cls-3"/></g><g id="Content"><g id="Logo"><path d="M148.72 179.49c2.77-4.46 4.4-9.69 4.51-15.29v-5.7c-.31-15.54-12.99-28.1-28.55-28.1h-3.62c-.75 0-1.46.29-2 .83l-4.44 4.31a28.35 28.35 0 0 0-16.34-5.15h-3.97c-.75 0-1.47.29-2 .83l-6.9 6.92c-.54.54-.83 1.26-.83 2.02v18.71c0 1.58 1.26 2.86 2.83 2.86h3.64c.13 0 .2.17.09.26l-5.51 4.51c-.66.54-1.04 1.36-1.04 2.22v3.53c0 16.62 13.47 30.32 30.04 30.14 17.43 0 29.09-15.53 34.08-22.88v-.02Z" style="fill:#4e027c"/><path d="M136.06 158.85c0-5.77-2.88-10.49-10.22-10.98-.75-.05-1.32-.67-1.32-1.42v-9.52c0-.83.7-1.48 1.52-1.42 12.16.78 21.78 10.98 21.78 23.46h-11.75v-.1Zm-37.79-21.92v9.62c0 .74.55 1.34 1.27 1.42 5.45.64 9.69 5.31 9.69 10.98h12.34c0-12.46-9.62-22.67-21.78-23.46-.82-.05-1.52.6-1.52 1.42h-.01Zm3.02 26.63c-1.7 0-3.03 1.52-2.81 3.22 1.57 12.28 11.97 21.76 24.56 21.76 13.68 0 24.77-11.19 24.77-24.99h-46.52Z" class="cls-3"/></g><g id="Text_outlines_" data-name="Text (outlines)"><path d="M37.78 110.09V91.18h7.81c1.42 0 2.64.28 3.67.83 1.03.55 1.83 1.32 2.39 2.3.56.98.84 2.12.84 3.42s-.28 2.45-.85 3.42-1.38 1.73-2.43 2.27c-1.05.54-2.3.8-3.75.8h-4.82v-3.6h3.97c.69 0 1.27-.12 1.73-.36.46-.24.82-.58 1.06-1.01.24-.43.36-.94.36-1.52s-.12-1.09-.36-1.52a2.37 2.37 0 0 0-1.06-.99c-.47-.23-1.04-.35-1.73-.35h-2.25v15.23h-4.57ZM54.47 110.09V91.18h13.18v3.71h-8.61v3.88h7.94v3.72h-7.94v3.89h8.61v3.71H54.47ZM70.25 110.09V91.18h7.81c1.42 0 2.64.25 3.67.76s1.83 1.23 2.39 2.18c.56.94.84 2.06.84 3.36s-.29 2.42-.86 3.34-1.38 1.61-2.44 2.09c-1.05.48-2.3.72-3.74.72h-4.94v-3.6h4.09c.69 0 1.27-.09 1.73-.27.46-.18.82-.46 1.06-.83.24-.37.36-.85.36-1.44s-.12-1.07-.36-1.45c-.24-.38-.59-.67-1.06-.87-.47-.19-1.04-.29-1.73-.29h-2.25v15.23h-4.57Zm10.65-8.64 4.71 8.64h-4.99L76 101.45h4.89ZM87.2 110.09V91.18h12.91v3.71h-8.34v3.88h7.52v3.72h-7.52v7.6H87.2ZM119.99 100.63c0 2.08-.4 3.84-1.2 5.29-.8 1.45-1.88 2.55-3.25 3.3-1.36.75-2.89 1.13-4.58 1.13s-3.23-.38-4.59-1.14c-1.36-.76-2.44-1.86-3.24-3.3-.8-1.44-1.2-3.2-1.2-5.28s.4-3.84 1.2-5.29c.8-1.45 1.88-2.54 3.24-3.3s2.89-1.13 4.59-1.13 3.22.38 4.58 1.13c1.36.75 2.45 1.85 3.25 3.3.8 1.45 1.2 3.21 1.2 5.29Zm-4.67 0c0-1.23-.17-2.27-.52-3.12-.35-.85-.85-1.49-1.5-1.93s-1.43-.66-2.34-.66-1.68.22-2.34.66-1.15 1.08-1.5 1.93c-.35.85-.52 1.89-.52 3.12s.17 2.27.52 3.12c.35.85.85 1.49 1.5 1.93.65.44 1.43.66 2.34.66s1.69-.22 2.34-.66c.65-.44 1.15-1.08 1.5-1.93.35-.85.52-1.89.52-3.12ZM122.39 110.09V91.18h7.81c1.42 0 2.64.25 3.67.76s1.83 1.23 2.39 2.18c.56.94.84 2.06.84 3.36s-.29 2.42-.86 3.34-1.38 1.61-2.44 2.09c-1.05.48-2.3.72-3.74.72h-4.94v-3.6h4.09c.69 0 1.27-.09 1.73-.27.46-.18.82-.46 1.06-.83.24-.37.36-.85.36-1.44s-.12-1.07-.36-1.45c-.24-.38-.59-.67-1.06-.87-.47-.19-1.04-.29-1.73-.29h-2.25v15.23h-4.57Zm10.64-8.64 4.71 8.64h-4.99l-4.62-8.64h4.89ZM139.34 91.18H145l4.8 11.71h.22l4.8-11.71h5.66v18.91h-4.45V98.47h-.16l-4.54 11.5h-2.84l-4.54-11.56h-.16v11.68h-4.45V91.18ZM163.08 110.09V91.18h13.19v3.71h-8.62v3.88h7.94v3.72h-7.94v3.89h8.62v3.71h-13.19ZM178.87 110.09V91.18h7.81c1.42 0 2.64.25 3.67.76s1.83 1.23 2.39 2.18c.56.94.84 2.06.84 3.36s-.29 2.42-.86 3.34-1.38 1.61-2.44 2.09c-1.05.48-2.3.72-3.74.72h-4.94v-3.6h4.09c.69 0 1.27-.09 1.73-.27.46-.18.82-.46 1.06-.83.24-.37.36-.85.36-1.44s-.12-1.07-.36-1.45c-.24-.38-.59-.67-1.06-.87-.47-.19-1.04-.29-1.73-.29h-2.25v15.23h-4.57Zm10.65-8.64 4.71 8.64h-4.99l-4.62-8.64h4.89ZM91.37 60.86v-3.71h15.98v3.71h-5.73v15.2h-4.51v-15.2h-5.74ZM126.32 66.6c0 2.08-.4 3.84-1.2 5.29-.8 1.45-1.88 2.55-3.25 3.3-1.36.75-2.89 1.13-4.58 1.13s-3.23-.38-4.59-1.14c-1.36-.76-2.44-1.86-3.24-3.3s-1.2-3.2-1.2-5.28.4-3.84 1.2-5.29c.8-1.45 1.88-2.54 3.24-3.3s2.89-1.13 4.59-1.13 3.22.38 4.58 1.13 2.45 1.85 3.25 3.3c.8 1.45 1.2 3.21 1.2 5.29Zm-4.67 0c0-1.23-.17-2.27-.52-3.12-.35-.85-.85-1.49-1.5-1.93-.65-.44-1.43-.66-2.34-.66s-1.68.22-2.34.66-1.15 1.08-1.5 1.93c-.35.85-.52 1.89-.52 3.12s.17 2.27.52 3.12c.35.85.85 1.49 1.5 1.93.65.44 1.43.66 2.34.66s1.69-.22 2.34-.66c.65-.44 1.15-1.08 1.5-1.93.35-.85.52-1.89.52-3.12ZM128.72 76.06V57.15h7.81c1.42 0 2.64.28 3.67.83 1.03.55 1.83 1.32 2.39 2.3.56.98.84 2.12.84 3.42s-.29 2.45-.85 3.42-1.38 1.73-2.43 2.27c-1.05.54-2.3.8-3.75.8h-4.82v-3.6h3.97c.69 0 1.27-.12 1.73-.36.46-.24.82-.58 1.06-1.01.24-.43.36-.94.36-1.52s-.12-1.09-.36-1.52a2.37 2.37 0 0 0-1.06-.99c-.47-.23-1.04-.35-1.73-.35h-2.25v15.23h-4.57Z" class="cls-3"/></g></g></g></svg>